<svg width="16" height="10" viewBox="0 0 16 10" fill="none" xmlns="http://www.w3.org/2000/svg">
<path d="M7.45337 0H9.4867C10.3378 0 11.0267 0.688364 11.0267 1.53388V7.69816C11.0267 8.54589 10.3356 9.23204 9.4867 9.23204H7.45337V0Z" fill="#FFFAF0"/>
<path fill-rule="evenodd" clip-rule="evenodd" d="M14.2711 2.29531C13.3222 1.70434 12.1956 1.33691 11.5 1.33691V7.89739C12.1956 7.89739 13.3222 7.52997 14.2711 6.93457C15.22 6.3436 16 5.52243 16 4.61715C16 3.71188 15.2222 2.89071 14.2711 2.29531ZM13.4178 4.03503C13.1444 4.03503 12.9244 3.77385 12.9244 3.45291C12.9244 3.13197 13.1444 2.87079 13.4178 2.87079C13.6911 2.87079 13.9067 3.13197 13.9067 3.45291C13.9067 3.77385 13.6867 4.03503 13.4178 4.03503Z" fill="#27FFE2"/>
<path fill-rule="evenodd" clip-rule="evenodd" d="M0 6.87049V2.36182C0.955555 2.36182 3.09111 3.37112 3.09111 4.61505C3.09111 5.85897 0.955555 6.86827 0 6.86827V6.87049Z" fill="#27FFE2"/>
<path fill-rule="evenodd" clip-rule="evenodd" d="M5.66896 8.57253H3.40674V0.659668H5.66896C6.3934 0.659668 6.98007 1.35246 6.98007 2.20683V7.02758C6.98007 7.88195 6.3934 8.57474 5.66896 8.57474V8.57253Z" fill="#FFFAF0"/>
</svg>
