<svg xmlns="http://www.w3.org/2000/svg" width="1024" height="1024" viewBox="0 0 1024 1024" fill="none">
<circle cx="512" cy="512" r="509.917" fill="#232323"/>
<path d="M374.574 320.615L449.707 277.237C481.156 259.08 524.092 274.664 545.565 311.856L702.116 583.01C723.645 620.3 715.534 665.226 684.167 683.335L609.035 726.713L374.574 320.615Z" fill="#F4F9F8"/>
<path fill-rule="evenodd" clip-rule="evenodd" d="M684.799 276.134C634.729 270.381 583.766 278.254 558.065 293.093L724.678 581.674C750.379 566.836 782.679 526.638 802.62 480.205C822.673 433.966 830.639 381.205 807.649 341.384C784.658 301.562 735.064 282.034 684.799 276.134ZM697.451 370.865C687.351 376.696 672.589 369.9 664.438 355.783C656.287 341.665 657.783 325.483 667.883 319.652C677.983 313.821 692.581 320.711 700.732 334.829C708.882 348.946 707.386 365.128 697.451 370.865Z" fill="#78FFF0"/>
<path fill-rule="evenodd" clip-rule="evenodd" d="M273.645 781.827L159.141 583.5C194.449 563.115 298.991 561.953 330.582 616.671C362.174 671.389 308.897 761.344 273.588 781.73L273.645 781.827Z" fill="#78FFF0"/>
<path fill-rule="evenodd" clip-rule="evenodd" d="M526.331 735.761L442.741 784.022L241.782 435.952L325.372 387.691C352.141 372.237 391.413 390.195 413.111 427.777L535.541 639.832C557.239 677.414 553.155 720.404 526.387 735.859L526.331 735.761Z" fill="#F4F9F8"/>
</svg>